<svg width="400" height="300" viewBox="0 0 400 300" fill="none" xmlns="http://www.w3.org/2000/svg">
  <!-- Background -->
  <rect width="400" height="300" fill="#F8FAFC"/>
  
  <!-- Medical background -->
  <rect x="50" y="50" width="300" height="200" rx="20" fill="#FEF2F2"/>
  
  <!-- Heart -->
  <path d="M200 120 Q190 105 175 110 Q160 115 165 135 Q170 155 200 175 Q230 155 235 135 Q240 115 225 110 Q210 105 200 120 Z" fill="#EF4444"/>
  
  <!-- ECG line -->
  <path d="M80 200 L120 200 L130 180 L140 220 L150 160 L160 200 L320 200" stroke="#059669" stroke-width="3" fill="none"/>
  
  <!-- Blood pressure monitor -->
  <rect x="280" y="100" width="50" height="30" rx="5" fill="#374151"/>
  <rect x="285" y="105" width="40" height="20" rx="3" fill="#1F2937"/>
  <text x="305" y="118" text-anchor="middle" fill="#10B981" font-size="10" font-weight="bold">120/80</text>
  
  <!-- Stethoscope -->
  <path d="M120 100 Q140 90 150 110 Q145 130 125 125 L110 140 Q105 145 100 140 L95 135" stroke="#374151" stroke-width="3" fill="none"/>
  <circle cx="150" cy="110" r="8" fill="#6B7280"/>
  <circle cx="95" cy="135" r="6" fill="#9CA3AF"/>
  
  <!-- Pills -->
  <ellipse cx="250" cy="180" rx="8" ry="4" fill="#F59E0B"/>
  <ellipse cx="270" cy="185" rx="8" ry="4" fill="#EF4444"/>
  <ellipse cx="290" cy="180" rx="8" ry="4" fill="#3B82F6"/>
  
  <!-- Title -->
  <text x="200" y="40" text-anchor="middle" fill="#1E293B" font-size="18" font-weight="bold">Santé Cardiovasculaire</text>
</svg>
