<svg width="400" height="300" viewBox="0 0 400 300" fill="none" xmlns="http://www.w3.org/2000/svg">
  <!-- Background -->
  <rect width="400" height="300" fill="#F8FAFC"/>
  
  <!-- Sky background -->
  <rect x="50" y="50" width="300" height="200" rx="20" fill="#FEF3C7"/>
  
  <!-- Sun -->
  <circle cx="150" cy="120" r="30" fill="#F59E0B"/>
  <path d="M150 70 L150 80 M150 160 L150 170 M100 120 L110 120 M190 120 L200 120 M115 85 L122 92 M178 148 L185 155 M185 85 L178 92 M122 148 L115 155" stroke="#F59E0B" stroke-width="3"/>
  
  <!-- Person silhouette -->
  <circle cx="280" cy="130" r="15" fill="#6B7280"/>
  <rect x="270" y="145" width="20" height="40" rx="10" fill="#6B7280"/>
  <rect x="265" y="155" width="10" height="25" rx="5" fill="#6B7280"/>
  <rect x="285" y="155" width="10" height="25" rx="5" fill="#6B7280"/>
  <rect x="275" y="185" width="10" height="20" rx="5" fill="#6B7280"/>
  
  <!-- Vitamin D molecules -->
  <circle cx="200" cy="100" r="4" fill="#10B981"/>
  <text x="200" y="105" text-anchor="middle" fill="white" font-size="8" font-weight="bold">D</text>
  
  <circle cx="220" cy="130" r="4" fill="#10B981"/>
  <text x="220" y="135" text-anchor="middle" fill="white" font-size="8" font-weight="bold">D</text>
  
  <circle cx="240" cy="110" r="4" fill="#10B981"/>
  <text x="240" y="115" text-anchor="middle" fill="white" font-size="8" font-weight="bold">D</text>
  
  <!-- Bones -->
  <rect x="100" y="220" width="40" height="8" rx="4" fill="#E5E7EB"/>
  <rect x="115" y="210" width="8" height="30" rx="4" fill="#E5E7EB"/>
  
  <!-- Immune system -->
  <circle cx="200" cy="240" r="8" fill="#3B82F6"/>
  <path d="M195 235 L205 245 M205 235 L195 245" stroke="white" stroke-width="2"/>
  
  <!-- Heart -->
  <path d="M280 220 Q275 215 270 220 Q275 225 280 230 Q285 225 290 220 Q285 215 280 220 Z" fill="#EF4444"/>
  
  <!-- Title -->
  <text x="200" y="40" text-anchor="middle" fill="#1E293B" font-size="18" font-weight="bold">Vitamine D</text>
</svg>
